<svg width="142" height="40" viewBox="0 0 142 40" fill="none" xmlns="http://www.w3.org/2000/svg">
<g clipPath="url(#clip0_13_9775)">
<path d="M16.5008 10.2473C19.3857 10.2473 21.7243 7.95333 21.7243 5.12363C21.7243 2.29393 19.3857 0 16.5008 0C13.616 0 11.2773 2.29393 11.2773 5.12363C11.2773 7.95333 13.616 10.2473 16.5008 10.2473Z" fill="#CCE4FF"/>
<path d="M16.4988 14.3916H26.9507C26.9507 20.017 22.2338 24.6437 16.4988 24.6437C10.7638 24.6437 6.04688 20.017 6.04688 14.3916H16.4988Z" fill="#018786"/>
<path d="M16.5 24.3008H32.5C32.5 32.9125 25.2747 39.9949 16.5 39.9949C7.72533 39.9949 0.5 32.9125 0.5 24.3008H16.5Z" fill="#3395FF"/>
</g>
<path d="M49.2699 30V9.63636H53.5753V18.6151H53.8438L61.1719 9.63636H66.3324L58.7756 18.7543L66.4219 30H61.2713L55.6932 21.6278L53.5753 24.2131V30H49.2699ZM69.4521 30V14.7273H73.6879V30H69.4521ZM71.5799 12.7585C70.9502 12.7585 70.4099 12.5497 69.9592 12.1321C69.515 11.7079 69.293 11.2008 69.293 10.6108C69.293 10.0275 69.515 9.52699 69.9592 9.10938C70.4099 8.68513 70.9502 8.47301 71.5799 8.47301C72.2096 8.47301 72.7466 8.68513 73.1907 9.10938C73.6415 9.52699 73.8668 10.0275 73.8668 10.6108C73.8668 11.2008 73.6415 11.7079 73.1907 12.1321C72.7466 12.5497 72.2096 12.7585 71.5799 12.7585ZM77.081 30V14.7273H81.1179V17.4219H81.2969C81.6151 16.527 82.1454 15.821 82.8878 15.304C83.6302 14.7869 84.5185 14.5284 85.5526 14.5284C86.5999 14.5284 87.4915 14.7902 88.2273 15.3139C88.9631 15.831 89.4536 16.5336 89.6989 17.4219H89.858C90.1695 16.5469 90.733 15.8475 91.5483 15.3239C92.3703 14.7936 93.3414 14.5284 94.4616 14.5284C95.8868 14.5284 97.0436 14.9825 97.9318 15.8906C98.8267 16.7921 99.2741 18.0715 99.2741 19.7287V30H95.0483V20.5639C95.0483 19.7154 94.8229 19.0791 94.3722 18.6548C93.9214 18.2306 93.358 18.0185 92.6818 18.0185C91.9129 18.0185 91.313 18.2637 90.8821 18.7543C90.4512 19.2382 90.2358 19.8778 90.2358 20.6733V30H86.1293V20.4744C86.1293 19.7254 85.9138 19.1288 85.483 18.6847C85.0587 18.2405 84.4986 18.0185 83.8026 18.0185C83.3319 18.0185 82.9077 18.1378 82.5298 18.3764C82.1586 18.6084 81.8636 18.9366 81.6449 19.3608C81.4261 19.7784 81.3168 20.2689 81.3168 20.8324V30H77.081ZM102.62 30V14.7273H106.856V30H102.62ZM104.748 12.7585C104.118 12.7585 103.578 12.5497 103.127 12.1321C102.683 11.7079 102.461 11.2008 102.461 10.6108C102.461 10.0275 102.683 9.52699 103.127 9.10938C103.578 8.68513 104.118 8.47301 104.748 8.47301C105.378 8.47301 105.915 8.68513 106.359 9.10938C106.809 9.52699 107.035 10.0275 107.035 10.6108C107.035 11.2008 106.809 11.7079 106.359 12.1321C105.915 12.5497 105.378 12.7585 104.748 12.7585ZM114.087 25.6051L114.097 20.5241H114.713L119.605 14.7273H124.468L117.895 22.4034H116.891L114.087 25.6051ZM110.249 30V9.63636H114.485V30H110.249ZM119.794 30L115.3 23.348L118.124 20.3551L124.756 30H119.794ZM132.817 30.2983C131.273 30.2983 129.937 29.9702 128.81 29.3139C127.69 28.651 126.825 27.7296 126.215 26.5497C125.605 25.3632 125.3 23.9877 125.3 22.4233C125.3 20.8456 125.605 19.4669 126.215 18.2869C126.825 17.1004 127.69 16.179 128.81 15.5227C129.937 14.8598 131.273 14.5284 132.817 14.5284C134.362 14.5284 135.694 14.8598 136.815 15.5227C137.942 16.179 138.81 17.1004 139.42 18.2869C140.03 19.4669 140.335 20.8456 140.335 22.4233C140.335 23.9877 140.03 25.3632 139.42 26.5497C138.81 27.7296 137.942 28.651 136.815 29.3139C135.694 29.9702 134.362 30.2983 132.817 30.2983ZM132.837 27.017C133.54 27.017 134.127 26.8182 134.597 26.4205C135.068 26.0161 135.423 25.4659 135.661 24.7699C135.906 24.0739 136.029 23.2817 136.029 22.3935C136.029 21.5052 135.906 20.7131 135.661 20.017C135.423 19.321 135.068 18.7708 134.597 18.3665C134.127 17.9621 133.54 17.7599 132.837 17.7599C132.128 17.7599 131.531 17.9621 131.048 18.3665C130.57 18.7708 130.209 19.321 129.964 20.017C129.725 20.7131 129.606 21.5052 129.606 22.3935C129.606 23.2817 129.725 24.0739 129.964 24.7699C130.209 25.4659 130.57 26.0161 131.048 26.4205C131.531 26.8182 132.128 27.017 132.837 27.017Z" fill="#1A87FF"/>
<defs>
<clipPath id="clip0_13_9775">
<rect width="32" height="40" fill="white" transform="translate(0.5)"/>
</clipPath>
</defs>
</svg>
