<svg width="109" height="75" viewBox="0 0 109 75" fill="none" xmlns="http://www.w3.org/2000/svg">
<path d="M92.1683 74.3124C94.7398 74.4087 97.5336 73.9592 100.2 72.8676C105.153 70.8128 107.82 66.9279 108.804 61.7267C108.995 60.6351 108.899 59.5113 108.677 58.4197C108.328 56.8144 107.82 55.3054 106.994 53.8927C105.725 51.7095 104.264 49.6547 102.423 47.953C100.835 46.4761 99.1845 45.0635 97.4702 43.7471C94.6763 41.6281 91.7873 39.6054 88.9617 37.5185C87.6918 36.5874 86.3902 35.6884 84.9298 35.0463C84.771 34.9821 84.6123 34.8857 84.4536 34.7894C76.8976 30.1661 69.3416 25.5428 61.7856 20.8874C56.7695 17.8052 51.7851 14.6587 46.8324 11.5444C41.975 8.49431 36.9906 5.70106 31.657 3.54993C28.6409 2.32989 25.5296 1.33459 22.3231 0.756674C19.2118 0.210866 16.164 0.371397 13.1163 1.20616C7.56039 2.71516 3.78241 6.21476 1.7823 11.6728C-0.186066 17.0667 0.607628 22.1716 3.49667 27.0197C4.5761 28.8176 6.00475 30.3909 7.52865 31.8035C9.49701 33.6336 11.6559 35.2389 13.8147 36.78C20.1643 41.2749 26.7678 45.3524 33.5936 49.0768C41.0226 53.1222 48.3881 57.2639 55.7853 61.3414C59.8173 63.5567 63.8175 65.8363 68.0717 67.6663C71.056 68.9506 74.072 70.1385 77.0881 71.4228C81.7867 73.4455 86.7711 74.216 92.1683 74.3124Z" fill="#EE8DB9"/>
<mask id="mask0_13_9819" style="mask-type:alpha" maskUnits="userSpaceOnUse" x="0" y="0" width="109" height="75">
<path d="M92.1683 74.3124C94.7398 74.4087 97.5336 73.9592 100.2 72.8676C105.153 70.8128 107.82 66.9279 108.804 61.7267C108.995 60.6351 108.899 59.5113 108.677 58.4197C108.328 56.8144 107.82 55.3054 106.994 53.8927C105.725 51.7095 104.264 49.6547 102.423 47.953C100.835 46.4762 99.1845 45.0635 97.4702 43.7471C94.6763 41.6281 91.7873 39.6054 88.9617 37.5185C87.6918 36.5874 86.3902 35.6884 84.9298 35.0463C84.771 34.9821 84.6123 34.8857 84.4536 34.7894C76.8976 30.1661 69.3416 25.5428 61.7856 20.8874C56.7695 17.8052 51.7851 14.6587 46.8324 11.5444C41.975 8.49431 36.9906 5.70106 31.657 3.54993C28.6409 2.32989 25.5296 1.33459 22.3231 0.756674C19.2118 0.210866 16.164 0.371397 13.1162 1.20616C7.56038 2.71516 3.78239 6.21476 1.78228 11.6728C-0.186081 17.0667 0.607613 22.1716 3.49666 27.0197C4.57609 28.8176 6.00475 30.3909 7.52863 31.8035C9.497 33.6336 11.6559 35.2389 13.8147 36.78C20.1643 41.2749 26.7678 45.3524 33.5936 49.0768C41.0226 53.1222 48.3881 57.2639 55.7853 61.3414C59.8173 63.5567 63.8175 65.8363 68.0717 67.6664C71.056 68.9506 74.072 70.1385 77.0881 71.4228C81.7867 73.4455 86.7711 74.2161 92.1683 74.3124Z" fill="black"/>
</mask>
<g mask="url(#mask0_13_9819)">
<path d="M120.699 62.8291C120.567 55.5098 118.612 49.4048 114.538 44.0418C111.789 40.4328 108.708 37.1273 105.23 34.2266C98.0426 28.1553 90.7554 22.2527 83.2364 16.6199C80.8183 14.7985 78.3341 13.112 75.8829 11.3918C75.0217 10.8184 74.1274 10.3125 73.1999 9.84026C72.6699 9.57042 72.1068 9.43551 71.5437 9.36805C70.55 9.23313 69.6557 9.5367 68.927 10.2787C68.5626 10.6498 68.2645 11.0545 67.9995 11.493C67.3701 12.4711 66.807 13.4493 66.2108 14.4612C62.2691 21.0047 58.3274 27.5482 54.4188 34.1254C52.2326 37.8019 50.1127 41.5458 47.8603 45.2223C45.2436 49.506 42.4612 53.6884 39.4469 57.7022C39.3475 57.8371 39.2482 57.972 39.1488 58.1069C38.4201 59.1863 38.4201 60.097 39.1819 61.1763C39.4469 61.5811 39.7781 61.9521 40.0763 62.2894C43.5542 66.3369 47.496 69.811 52.0339 72.6106C57.8305 76.1859 63.6603 79.6937 69.7882 82.6956C76.0154 85.765 82.5077 88.0249 89.3311 89.3066C92.8754 89.9812 96.4196 90.1835 99.9969 89.4078C100.659 89.2729 101.289 89.1379 101.918 88.8681C112.021 84.9218 118.48 77.8386 120.335 66.7417C120.567 65.2913 120.6 63.7735 120.699 62.8291Z" fill="#F7D046"/>
<mask id="mask1_13_9819" style="mask-type:alpha" maskUnits="userSpaceOnUse" x="38" y="9" width="83" height="81">
<path d="M120.703 62.8291C120.571 55.5098 118.616 49.4048 114.542 44.0418C111.793 40.4328 108.712 37.1273 105.234 34.2266C98.0465 28.1553 90.7593 22.2527 83.2403 16.6199C80.8223 14.7985 78.338 13.112 75.8868 11.3918C75.0256 10.8184 74.1313 10.3125 73.2038 9.84026C72.6738 9.57042 72.1107 9.43551 71.5476 9.36805C70.5539 9.23313 69.6596 9.5367 68.9309 10.2787C68.5665 10.6498 68.2684 11.0545 68.0034 11.493C67.3741 12.4711 66.811 13.4493 66.2147 14.4612C62.273 21.0047 58.3313 27.5482 54.4227 34.1254C52.2365 37.8019 50.1166 41.5458 47.8642 45.2223C45.2475 49.506 42.4651 53.6884 39.4508 57.7022C39.3514 57.8371 39.2521 57.972 39.1527 58.1069C38.424 59.1863 38.424 60.097 39.1858 61.1763C39.4508 61.5811 39.7821 61.9521 40.0802 62.2894C43.5582 66.3369 47.4999 69.811 52.0378 72.6106C57.8344 76.1859 63.6642 79.6937 69.7921 82.6956C76.0193 85.765 82.5116 88.0249 89.335 89.3066C92.8793 89.9812 96.4235 90.1835 100.001 89.4078C100.663 89.2729 101.293 89.1379 101.922 88.8681C112.025 84.9218 118.484 77.8386 120.339 66.7417C120.571 65.2913 120.604 63.7735 120.703 62.8291Z" fill="#EA552B"/>
</mask>
<g mask="url(#mask1_13_9819)">
<path d="M35.6076 39.8236C35.068 40.049 34.5188 40.2574 33.9792 40.4828C30.3526 41.9725 26.5588 42.9734 22.6942 43.6548C22.3692 43.7095 22.0415 43.7207 21.721 43.7052C21.6085 43.7033 21.4286 43.5829 21.4138 43.4788C21.3727 43.3675 21.4844 43.2119 21.5646 42.962C21.7749 43.4481 22.0639 43.3693 22.3363 43.3002C25.6554 42.5994 28.9527 41.8213 32.1574 40.6461C33.4087 40.1849 34.631 39.673 35.8727 39.1948C36.1425 39.0821 36.3403 38.9213 36.5162 38.6831C38.5345 35.8558 40.7975 33.2237 43.4159 30.9026C44.9907 29.4852 46.6426 28.2032 48.5278 27.2133C48.8547 27.0446 49.2009 26.9098 49.5594 26.8355C50.1735 26.7018 50.5674 27.0805 50.4578 27.7086C50.3782 28.1161 50.1959 28.5385 49.9943 28.9271C49.4749 29.9302 48.7563 30.7792 47.985 31.6138C46.7019 32.996 45.2697 34.1946 43.7462 35.3113C42.4707 36.2379 41.1636 37.0701 39.7917 37.8274C39.0138 38.2599 38.1904 38.6513 37.3836 39.0329C37.1068 39.1723 36.8756 39.3527 36.6926 39.6176C35.635 41.1611 34.6494 42.7527 33.8507 44.438C33.4122 45.3487 33.0361 46.2906 32.8013 47.2851C32.6345 47.9692 32.5203 48.6676 32.5617 49.3653C32.6333 50.4287 33.0724 51.2773 33.9051 51.9181C34.4667 52.3566 35.0803 52.6519 35.7415 52.8743C36.8697 53.252 38.0113 53.4189 39.1908 53.496C42.0522 53.6721 44.8563 53.3178 47.6133 52.6075C48.4137 52.41 49.1755 52.1449 49.9663 51.9305C50.1358 51.8764 50.2598 51.7813 50.3452 51.6186C52.0318 48.4439 54.3327 45.722 56.7802 43.14C59.1634 40.6406 61.7317 38.3488 64.3939 36.1826C66.3316 34.6206 68.3149 33.0996 70.2982 31.5786C71.5544 30.6182 72.8756 29.7326 74.2572 28.9922C74.6677 28.7746 75.107 28.6079 75.5393 28.4678C75.7423 28.3942 75.9672 28.398 76.1753 28.4116C76.618 28.446 76.954 28.7231 77.0062 29.1663C77.0532 29.5223 77.0598 29.9246 76.968 30.2715C76.796 30.8684 76.581 31.4679 76.3107 32.0094C75.4883 33.7312 74.3614 35.2701 73.1791 36.7512C71.0619 39.3656 68.642 41.6834 66.0274 43.7767C63.2888 45.9651 60.4056 47.8997 57.3418 49.5564C55.3326 50.6414 53.2367 51.574 51.0707 52.3447C50.8844 52.4085 50.7078 52.4893 50.6083 52.7054C50.0703 53.8322 49.621 54.9973 49.4614 56.2412C49.3986 56.6388 49.3884 57.0508 49.395 57.453C49.4398 58.9382 50.0883 60.1154 51.3047 60.9605C52.1156 61.5238 53.0331 61.8444 53.9955 62.0484C55.1327 62.2856 56.2858 62.3555 57.4505 62.3285C60.1339 62.2703 62.7554 61.7521 65.3307 61.0353C69.657 59.8357 73.7872 58.0966 77.7265 55.9053C77.9102 55.7978 78.0983 55.6201 78.2171 55.4378C81.4301 50.1747 85.4354 45.5986 89.8681 41.3817C90.9066 40.3908 92.017 39.448 93.1949 38.6237C93.834 38.1822 94.502 37.7915 95.2497 37.5797C95.4623 37.523 95.7109 37.4904 95.9358 37.4942C96.6534 37.5031 97.1122 37.9566 97.0771 38.6764C97.0477 39.0546 96.9848 39.4523 96.8333 39.8116C96.5753 40.4137 96.2645 41.0015 95.9249 41.5385C94.7941 43.3053 93.4089 44.86 91.9588 46.3398C89.3013 49.0221 86.3842 51.4051 83.2434 53.5129C81.8555 54.4376 80.4122 55.3043 79.005 56.1951C78.838 56.2928 78.6736 56.4341 78.5715 56.6066C77.6077 58.2757 76.7616 60.0339 76.2938 61.9091C75.9576 63.2337 75.8199 64.5549 76.0722 65.8962C76.2485 66.8308 76.6015 67.6846 77.1908 68.4452C77.9003 69.3386 78.8044 69.87 79.8844 70.1632C80.8327 70.4206 81.7873 70.4938 82.7702 70.4603C84.779 70.3907 86.7241 69.9748 88.6255 69.4041C91.9696 68.3955 95.135 66.9951 98.2156 65.3286C98.7429 65.0428 99.2606 64.74 99.8046 64.4443C100.005 64.3271 100.117 64.1715 100.164 63.9411C101.466 58.8029 104.16 54.5429 108.146 51.1059C109.897 49.6077 111.829 48.3874 114.031 47.6408C114.607 47.4395 115.231 47.3228 115.831 47.2426C116.182 47.1949 116.582 47.2319 116.924 47.3249C117.599 47.4939 118.004 48.047 117.959 48.7499C117.925 49.1983 117.831 49.6591 117.63 50.0478C117.274 50.7521 116.875 51.459 116.412 52.0911C115.223 53.7564 113.77 55.1926 112.279 56.5612C108.944 59.6173 105.315 62.2361 101.453 64.5629C101.136 64.7485 100.977 64.977 100.904 65.3577C100.48 67.8167 100.794 70.2046 101.598 72.5538C102.235 74.4144 103.109 76.1818 104.033 77.9199C104.694 79.1576 105.388 80.3757 106.115 81.5743C106.489 82.1906 106.922 82.7944 107.362 83.3716C107.624 83.7145 107.937 84.0281 108.451 84.1106C108.167 84.2766 107.95 84.2461 107.76 84.1088C107.436 83.8922 107.112 83.6756 106.846 83.403C106.029 82.5949 105.384 81.6188 104.781 80.6402C103.454 78.5065 102.277 76.2849 101.21 74.0216C100.003 71.4343 99.4456 68.7374 99.8108 65.8618C99.8224 65.7648 99.8172 65.6776 99.8165 65.5201C99.6232 65.6107 99.4729 65.6986 99.3296 65.7598C96.8625 67.1352 94.3254 68.3485 91.6963 69.3224C89.4731 70.149 87.2062 70.8208 84.8756 71.1463C83.8645 71.2866 82.8508 71.3832 81.8268 71.3054C81.1496 71.2503 80.4796 71.1685 79.821 70.9898C77.4432 70.3729 75.9677 68.7996 75.3426 66.4132C75.0094 65.1644 75.0302 63.9115 75.2495 62.6553C75.5599 60.8947 76.2056 59.2537 77.0024 57.6823C77.064 57.556 77.1256 57.4297 77.1873 57.3034C77.1943 57.2768 77.175 57.2429 77.1795 57.1726C76.6258 57.4514 76.0722 57.7301 75.5352 57.9991C70.967 60.2199 66.2316 61.9521 61.2268 62.7815C59.6446 63.0528 58.045 63.1763 56.4351 63.1254C55.2582 63.092 54.0928 62.9615 52.9716 62.5571C52.3632 62.349 51.7689 62.0876 51.2124 61.7363C49.536 60.7092 48.7184 59.1572 48.7049 57.1799C48.6994 55.9199 49.0074 54.7021 49.4567 53.5369C49.5466 53.3039 49.6364 53.0709 49.7404 52.7844C49.5278 52.8411 49.3653 52.8685 49.2124 52.9128C46.2408 53.7937 43.2056 54.3284 40.0911 54.2552C38.7323 54.2153 37.3852 54.0784 36.0681 53.7209C35.2419 53.4823 34.4631 53.1708 33.7505 52.6627C32.4982 51.7936 31.8734 50.58 31.869 49.0486C31.8604 48.1738 32.0265 47.3322 32.2717 46.5121C32.6535 45.2285 33.1863 44.0145 33.8271 42.8727C34.3183 41.9764 34.8718 41.1112 35.3893 40.222C35.4676 40.086 35.5556 39.9668 35.6339 39.8308C35.6532 39.8646 35.6436 39.8477 35.6076 39.8236ZM51.3608 51.408C51.5066 51.3904 51.5664 51.378 51.6261 51.3657C53.2236 50.7696 54.7633 50.0721 56.2811 49.2971C59.1233 47.8376 61.7849 46.1003 64.3405 44.1769C67.0438 42.122 69.5357 39.8523 71.7512 37.2931C73.1743 35.6487 74.4701 33.8981 75.4781 31.955C75.7343 31.4668 75.9448 30.9376 76.129 30.4013C76.2189 30.1682 76.2535 29.8773 76.2643 29.6228C76.2797 29.298 76.1788 29.1991 75.8634 29.2708C75.5647 29.3328 75.2685 29.4383 74.9917 29.5777C73.3281 30.3703 71.8187 31.4336 70.348 32.5646C68.2477 34.154 66.1765 35.7941 64.1412 37.4583C61.5124 39.605 59.0135 41.9013 56.6997 44.4052C54.8071 46.4371 53.0584 48.5653 51.6099 50.9465C51.5553 51.0461 51.477 51.1822 51.3608 51.408ZM101.381 63.4994C101.575 63.4089 101.675 63.3503 101.792 63.2819C105.425 61.0216 108.851 58.4764 111.985 55.5375C113.369 54.2542 114.688 52.8961 115.779 51.3331C116.145 50.8032 116.456 50.2154 116.75 49.6374C116.883 49.4017 116.934 49.101 116.962 48.8368C116.997 48.5458 116.883 48.3864 116.62 48.3149C116.462 48.272 116.27 48.2486 116.125 48.2662C115.687 48.3191 115.233 48.3817 114.817 48.512C112.959 49.0802 111.279 50.0401 109.735 51.2368C105.818 54.2495 103.104 58.1607 101.561 62.8758C101.485 63.0555 101.452 63.2325 101.381 63.4994ZM79.778 54.6602C79.7876 54.6771 79.8236 54.7012 79.8332 54.7181C79.8833 54.6888 79.9431 54.6764 79.9932 54.6471C84.0531 52.1596 87.8316 49.2953 91.225 45.9118C92.661 44.4853 94.0058 42.9769 95.1153 41.2902C95.4717 40.7434 95.7658 40.1653 96.0502 39.5704C96.1734 39.3178 96.2151 39.0002 96.2497 38.7092C96.2702 38.4717 96.1596 38.3559 95.9181 38.3618C95.6598 38.3775 95.4042 38.4368 95.1511 38.5397C94.1458 38.9247 93.3045 39.5973 92.4631 40.2699C90.7162 41.6977 89.0824 43.285 87.5302 44.9374C84.7899 47.826 82.2391 50.852 80.0271 54.1987C79.9751 54.3419 79.8897 54.5046 79.778 54.6602ZM49.9013 27.3573C49.5017 27.3204 49.1748 27.489 48.8645 27.6479C47.8266 28.21 46.8394 28.9002 45.8978 29.6314C42.8182 32.0418 40.1974 34.9057 37.8336 38.0253C37.7694 38.108 37.7245 38.2245 37.6224 38.397C38.0759 38.1769 38.4124 38.0251 38.7561 37.8467C41.0183 36.6588 43.1648 35.2679 45.1141 33.6089C46.4962 32.4396 47.8134 31.1954 48.8639 29.6786C49.1991 29.2118 49.4623 28.6969 49.7352 28.1989C49.8944 27.9704 49.9817 27.6938 49.9013 27.3573Z" fill="black"/>
</g>
</g>
</svg>
